<svg width="364" height="144" viewBox="0 0 364 144" fill="none" xmlns="http://www.w3.org/2000/svg">
<ellipse cx="176.786" cy="91.8806" rx="43.4388" ry="45.6716" fill="#C85151"/>
<path d="M176.786 0L214.405 68.5075H139.167L176.786 0Z" fill="#C85151"/>
<path d="M8.64 110.522V41.9784H23.136V98.5224H50.976V110.522H8.64ZM83.2733 57.0504C90.3133 57.0504 95.6893 58.5864 99.4013 61.6584C103.177 64.6664 105.065 69.3064 105.065 75.5784V110.522H95.0813L92.2973 103.418H91.9133C89.6733 106.234 87.3053 108.282 84.8093 109.562C82.3133 110.842 78.8893 111.482 74.5373 111.482C69.8653 111.482 65.9933 110.138 62.9213 107.45C59.8493 104.698 58.3133 100.506 58.3133 94.8744C58.3133 89.3064 60.2653 85.2104 64.1693 82.5864C68.0733 79.8984 73.9293 78.4264 81.7373 78.1704L90.8573 77.8824V75.5784C90.8573 72.8264 90.1213 70.8104 88.6493 69.5304C87.2413 68.2504 85.2573 67.6104 82.6973 67.6104C80.1373 67.6104 77.6413 67.9944 75.2093 68.7624C72.7773 69.4664 70.3453 70.3624 67.9133 71.4504L63.2093 61.7544C66.0253 60.2824 69.1293 59.1304 72.5213 58.2984C75.9773 57.4664 79.5613 57.0504 83.2733 57.0504ZM85.2893 86.4264C80.6813 86.5544 77.4813 87.3864 75.6893 88.9224C73.8973 90.4584 73.0013 92.4744 73.0013 94.9704C73.0013 97.1464 73.6413 98.7144 74.9213 99.6744C76.2013 100.57 77.8653 101.018 79.9133 101.018C82.9853 101.018 85.5773 100.122 87.6893 98.3304C89.8013 96.4744 90.8573 93.8824 90.8573 90.5544V86.2344L85.2893 86.4264ZM134.011 54.5544C134.011 56.5384 133.947 58.4904 133.819 60.4104C133.691 62.3304 133.563 63.8344 133.435 64.9224H134.011C135.419 62.7464 137.307 60.9224 139.675 59.4504C142.043 57.9144 145.115 57.1464 148.891 57.1464C154.779 57.1464 159.547 59.4504 163.195 64.0584C166.843 68.6024 168.667 75.3224 168.667 84.2184C168.667 93.1784 166.811 99.9624 163.099 104.57C159.387 109.178 154.523 111.482 148.507 111.482C144.667 111.482 141.627 110.81 139.387 109.466C137.211 108.058 135.419 106.49 134.011 104.762H133.051L130.651 110.522H119.707V37.5624H134.011V54.5544ZM144.283 68.5704C140.571 68.5704 137.947 69.7224 136.411 72.0264C134.939 74.3304 134.139 77.8504 134.011 82.5864V84.1224C134.011 89.1784 134.747 93.0824 136.219 95.8344C137.755 98.5224 140.507 99.8664 144.475 99.8664C147.419 99.8664 149.755 98.5224 151.483 95.8344C153.211 93.0824 154.075 89.1464 154.075 84.0264C154.075 78.9064 153.179 75.0664 151.387 72.5064C149.659 69.8824 147.291 68.5704 144.283 68.5704ZM223.561 110.522L218.569 94.2024H193.609L188.617 110.522H172.969L197.161 41.6904H214.921L239.209 110.522H223.561ZM210.121 66.0744C209.801 64.9864 209.385 63.6104 208.873 61.9464C208.361 60.2824 207.849 58.5864 207.337 56.8584C206.825 55.1304 206.409 53.6264 206.089 52.3464C205.769 53.6264 205.321 55.2264 204.745 57.1464C204.233 59.0024 203.721 60.7944 203.209 62.5224C202.761 64.1864 202.409 65.3704 202.153 66.0744L197.257 82.0104H215.113L210.121 66.0744ZM275.922 57.1464C281.81 57.1464 286.578 59.4504 290.226 64.0584C293.874 68.6024 295.698 75.3224 295.698 84.2184C295.698 93.1144 293.81 99.8984 290.034 104.57C286.258 109.178 281.426 111.482 275.538 111.482C271.762 111.482 268.754 110.81 266.514 109.466C264.274 108.058 262.45 106.49 261.042 104.762H260.274C260.786 107.45 261.042 110.01 261.042 112.442V133.562H246.738V58.1064H258.354L260.37 64.9224H261.042C262.45 62.8104 264.338 60.9864 266.706 59.4504C269.074 57.9144 272.146 57.1464 275.922 57.1464ZM271.314 68.5704C267.602 68.5704 264.978 69.7224 263.442 72.0264C261.97 74.3304 261.17 77.8504 261.042 82.5864V84.1224C261.042 89.1784 261.778 93.0824 263.25 95.8344C264.786 98.5224 267.538 99.8664 271.506 99.8664C274.77 99.8664 277.17 98.5224 278.706 95.8344C280.306 93.0824 281.106 89.1464 281.106 84.0264C281.106 73.7224 277.842 68.5704 271.314 68.5704ZM336.672 57.1464C342.56 57.1464 347.328 59.4504 350.976 64.0584C354.624 68.6024 356.448 75.3224 356.448 84.2184C356.448 93.1144 354.56 99.8984 350.784 104.57C347.008 109.178 342.176 111.482 336.288 111.482C332.512 111.482 329.504 110.81 327.264 109.466C325.024 108.058 323.2 106.49 321.792 104.762H321.024C321.536 107.45 321.792 110.01 321.792 112.442V133.562H307.488V58.1064H319.104L321.12 64.9224H321.792C323.2 62.8104 325.088 60.9864 327.456 59.4504C329.824 57.9144 332.896 57.1464 336.672 57.1464ZM332.064 68.5704C328.352 68.5704 325.728 69.7224 324.192 72.0264C322.72 74.3304 321.92 77.8504 321.792 82.5864V84.1224C321.792 89.1784 322.528 93.0824 324 95.8344C325.536 98.5224 328.288 99.8664 332.256 99.8664C335.52 99.8664 337.92 98.5224 339.456 95.8344C341.056 93.0824 341.856 89.1464 341.856 84.0264C341.856 73.7224 338.592 68.5704 332.064 68.5704Z" fill="white"/>
</svg>
