<svg width="80" height="135" viewBox="0 0 80 135" fill="none" xmlns="http://www.w3.org/2000/svg">
<path d="M80 83.4961C80 106.418 62.0914 125 40 125C17.9086 125 0 106.418 0 83.4961C0 60.5741 17.9086 41.9922 40 41.9922C62.0914 41.9922 80 60.5741 80 83.4961Z" fill="#C85151"/>
<path d="M40 0L74.641 62.2559H5.35898L40 0Z" fill="#C85151"/>
<path d="M45.27 86.67H34.56L32.31 43.74H47.52L45.27 86.67ZM32.13 101.7C32.13 98.94 32.88 97.02 34.38 95.94C35.88 94.8 37.71 94.23 39.87 94.23C41.97 94.23 43.77 94.8 45.27 95.94C46.77 97.02 47.52 98.94 47.52 101.7C47.52 104.34 46.77 106.26 45.27 107.46C43.77 108.6 41.97 109.17 39.87 109.17C37.71 109.17 35.88 108.6 34.38 107.46C32.88 106.26 32.13 104.34 32.13 101.7Z" fill="white"/>
</svg>
